<svg xmlns="http://www.w3.org/2000/svg" viewBox="0 0 40.55 57.73"><defs><style>.cls-1{fill:#fff;fill-rule:evenodd;}</style></defs><title>Prancheta 3</title><g id="Camada_1-3" data-name="Camada 1"><path class="cls-1" d="M30.11,31.12a33.07,33.07,0,0,1-.21-4.45c-9,0-17.24,1.7-27,0,.12.35.24.7.37,1C8,40.64,16,34.07,30.11,31.12Z"/><path class="cls-1" d="M32.05,38.84c-.06-.13-.11-.26-.16-.4a31.85,31.85,0,0,1-1.18-3.94c-8.66,1.75-12,5.69-21,5.45C16.46,49.26,20.85,44.61,32.05,38.84Z"/><path class="cls-1" d="M37.28,47.76c-3,3-3.62,5.39-7.9,8.32,7.79,3.3,7,1.18,11.17-5.44A25.53,25.53,0,0,1,37.28,47.76Z"/><path class="cls-1" d="M35.77,45.77A27.92,27.92,0,0,1,33.47,42c-5.32,2.47-8.15,6.19-14.26,8C25.25,54.85,27.28,53.16,35.77,45.77Z"/><path class="cls-1" d="M30.16,23.26A31.78,31.78,0,0,1,31,18.94C20.69,16.25,8.6,15.6,0,10.87.33,27.78,12.81,22.45,30.16,23.26Z"/><path class="cls-1" d="M34.52,35.9a28.51,28.51,0,0,1,1.15-15.32,30,30,0,0,1,2-4.32L1,0C-1.07,10.7,26,13.91,34.74,16.74l-.53,1.9h0A28,28,0,0,0,34.52,35.9Z"/></g></svg>